<svg xmlns="http://www.w3.org/2000/svg" viewBox="0 0 512 512" width="512" height="512" role="img" aria-label="Upgrade Stone">
  <defs>
    <linearGradient id="stone" x1="140" y1="90" x2="390" y2="440" gradientUnits="userSpaceOnUse">
      <stop offset="0" stop-color="#8f7cff"/>
      <stop offset="0.55" stop-color="#4a3fb8"/>
      <stop offset="1" stop-color="#251f63"/>
    </linearGradient>

    <radialGradient id="glow" cx="42%" cy="38%" r="60%">
      <stop offset="0" stop-color="#e9e6ff" stop-opacity="0.95"/>
      <stop offset="0.35" stop-color="#b6abff" stop-opacity="0.65"/>
      <stop offset="1" stop-color="#6a5cff" stop-opacity="0"/>
    </radialGradient>

    <linearGradient id="facetHi" x1="170" y1="130" x2="340" y2="300" gradientUnits="userSpaceOnUse">
      <stop offset="0" stop-color="#ffffff" stop-opacity="0.55"/>
      <stop offset="1" stop-color="#ffffff" stop-opacity="0"/>
    </linearGradient>

    <filter id="softShadow" x="-25%" y="-25%" width="150%" height="150%">
      <feDropShadow dx="0" dy="10" stdDeviation="10" flood-color="#000" flood-opacity="0.25"/>
    </filter>

    <filter id="outerGlow" x="-40%" y="-40%" width="180%" height="180%">
      <feGaussianBlur stdDeviation="6" result="blur"/>
      <feColorMatrix in="blur" type="matrix"
        values="1 0 0 0 0
                0 1 0 0 0
                0 0 1 0 0
                0 0 0 0.55 0" result="gl"/>
      <feMerge>
        <feMergeNode in="gl"/>
        <feMergeNode in="SourceGraphic"/>
      </feMerge>
    </filter>

    <clipPath id="stoneClip">
      <path d="M256 74
               L344 128
               L410 236
               L356 378
               L256 448
               L156 378
               L102 236
               L168 128 Z"/>
    </clipPath>
  </defs>

  <!-- Ground shadow -->
  <ellipse cx="256" cy="456" rx="170" ry="34" fill="#000" opacity="0.12"/>

  <!-- Stone body -->
  <path filter="url(#softShadow)"
        d="M256 74
           L344 128
           L410 236
           L356 378
           L256 448
           L156 378
           L102 236
           L168 128 Z"
        fill="url(#stone)" stroke="#16152a" stroke-width="10" stroke-linejoin="round"/>

  <!-- Outer glow halo -->
  <path filter="url(#outerGlow)"
        d="M256 86
           L336 136
           L396 236
           L348 366
           L256 434
           L164 366
           L116 236
           L176 136 Z"
        fill="none" stroke="#bdb2ff" stroke-opacity="0.35" stroke-width="8" stroke-linejoin="round"/>

  <!-- Facets -->
  <path d="M256 74 L244 176 L168 128 Z" fill="#a79aff" opacity="0.55"/>
  <path d="M256 74 L344 128 L268 176 Z" fill="#7666f0" opacity="0.7"/>
  <path d="M344 128 L410 236 L310 226 Z" fill="#5a4ad0" opacity="0.8"/>
  <path d="M410 236 L356 378 L302 300 Z" fill="#3b31a7" opacity="0.9"/>
  <path d="M356 378 L256 448 L276 318 Z" fill="#4a3fb8" opacity="0.85"/>
  <path d="M256 448 L156 378 L236 318 Z" fill="#5d4fe0" opacity="0.75"/>
  <path d="M156 378 L102 236 L210 300 Z" fill="#3a319e" opacity="0.9"/>
  <path d="M102 236 L168 128 L202 226 Z" fill="#6b5cf0" opacity="0.78"/>

  <!-- Inner glow -->
  <g clip-path="url(#stoneClip)">
    <rect x="80" y="60" width="360" height="420" fill="url(#glow)"/>
    <circle cx="230" cy="170" r="6" fill="#ffffff" opacity="0.7"/>
    <circle cx="305" cy="210" r="4" fill="#ffffff" opacity="0.6"/>
    <circle cx="260" cy="270" r="5" fill="#ffffff" opacity="0.45"/>
    <circle cx="210" cy="310" r="3.5" fill="#ffffff" opacity="0.5"/>
  </g>

  <!-- Gloss highlight -->
  <path d="M176 136
           C210 120, 246 120, 286 140
           C248 176, 212 220, 202 266
           C178 238, 156 192, 156 170
           C156 154, 164 144, 176 136 Z"
        fill="url(#facetHi)" opacity="0.9"/>

  <!-- Subtle bevel for depth -->
  <path d="M168 128 L244 176 L202 226 L168 128 Z" fill="#000" opacity="0.12"/>
</svg>